<svg width="888" height="613.91263" xmlns="http://www.w3.org/2000/svg">
 <title>active_options</title>

 <g>
  <title>background</title>
  <rect fill="none" id="canvas_background" height="602" width="802" y="-1" x="-1"/>
 </g>
 <g>
  <title>Layer 1</title>
  <path id="svg_1" fill="#e6e6e6" d="m119.323,442.84093l-11.41944,-18.452a273.13431,273.13431 0 0 1 12.6615,-28.06228l7.49735,6.309l-5.84681,-9.44746c5.97881,-11.20478 10.64756,-18.24624 10.64756,-18.24624s22.88762,37.7244 29.99091,77.32119l-15.59472,23.06949l17.01541,-13.18641a110.50312,110.50312 0 0 1 0.63974,13.87219c-0.94012,46.70757 -16.95677,84.2645 -35.77423,83.88574s-33.30986,-38.54976 -32.36974,-85.25733c0.29145,-14.4798 3.87216,-29.56293 8.673,-43.48536l13.87947,11.67947z"/>
  <path id="svg_2" fill="#e6e6e6" d="m67.65017,463.43958l-19.31345,-9.893a273.13311,273.13311 0 0 1 -3.66662,-30.56732l9.67919,1.52538l-9.88853,-5.06522c-0.67364,-12.68225 -0.31672,-21.12335 -0.31672,-21.12335s39.09262,20.46315 65.641,50.68808l-1.42513,27.80946l7.74988,-20.08346a110.50062,110.50062 0 0 1 7.7182,11.54454c23.33842,40.46973 29.04068,80.89917 12.73631,90.30171s-48.44116,-15.78241 -71.77958,-56.25214c-7.23514,-12.546 -11.96638,-27.30873 -15.05315,-41.70852l17.9186,2.82384z"/>
  <path id="svg_3" fill="#e6e6e6" d="m164.62561,612.80731c-22.25416,1.42351 -46.50238,-0.08279 -72.29843,0l0,-59.06065c22.73062,3.53858 46.97076,3.17518 72.29843,0l0,59.06065z"/>
  <polygon id="svg_4" fill="#e6e6e6" points="689.193 342.668 453.019 380.696 452.018 151.095 688.192 0 689.193 342.668"/>
  <polygon id="svg_5" fill="#fff" points="667.176 308.643 463.026 352.675 463.026 160.534 667.176 49.73 667.176 308.643"/>
  <polygon id="svg_6" fill="#3f3d56" points="647.162 132.514 475.035 209.595 475.035 182.55 647.162 97.517 647.162 132.514"/>
  <polygon id="svg_7" fill="#a6a6a6" points="647.162 204.567 475.035 265.277 475.035 238.592 647.162 170.035 647.162 204.567"/>
  <path id="svg_8" fill="#e6e6e6" d="m541.53648,171.13187a0.645,0.645 0 0 1 1.24118,-0.04088l2.7869,8.78335l3.33872,10.52249a0.645,0.645 0 0 1 -0.36673,0.7905l-6.4521,2.68854l-5.67052,2.36286a0.645,0.645 0 0 1 -0.87445,-0.74964l3.10159,-12.59732l2.89541,-11.7599z"/>
  <path id="svg_9" fill="#e6e6e6" d="m531.18454,236.62331a1.06452,1.06452 0 0 1 2.04832,-0.06745l2.33611,7.36258l3.22251,10.15622a1.06454,1.06454 0 0 1 -0.60522,1.30458l-6.0974,2.54073l-4.9031,2.04308a1.06452,1.06452 0 0 1 -1.44311,-1.23712l2.90283,-11.79l2.53906,-10.31262z"/>
  <polygon id="svg_10" fill="#f2f2f2" points="647.162 276.62 475.035 320.959 475.035 292.631 647.162 239.964 647.162 276.62"/>
  <path id="svg_11" fill="#3f3d56" d="m643.15869,151.98182c0,6.027 -2.70015,12.01954 -6.00441,13.37389c-3.27531,1.3425 -5.90948,-2.38638 -5.90948,-8.31806s2.63417,-11.89626 5.90948,-13.33362c3.30426,-1.45006 6.00441,2.25082 6.00441,8.27779z"/>
  <path id="svg_12" fill="#fff" d="m639.15575,153.68052c0,2.009 -0.89741,4.01407 -2.00147,4.47724c-1.10081,0.4618 -1.99081,-0.78477 -1.99081,-2.78306s0.89,-4.00023 1.99081,-4.47271c1.10406,-0.47388 2.00147,0.76954 2.00147,2.77853z"/>
  <path id="svg_13" fill="#a6a6a6" d="m643.15869,222.03331c0,6.027 -2.70015,12.01954 -6.00441,13.3739c-3.27531,1.34249 -5.90948,-2.38639 -5.90948,-8.31807s2.63417,-11.89626 5.90948,-13.33361c3.30426,-1.4501 6.00441,2.25078 6.00441,8.27778z"/>
  <path id="svg_14" fill="#fff" d="m639.15575,223.73198c0,2.009 -0.89741,4.01407 -2.00147,4.47723c-1.10081,0.46181 -1.99081,-0.78476 -1.99081,-2.78305s0.89,-4.00023 1.99081,-4.47272c1.10406,-0.47388 2.00147,0.76955 2.00147,2.77854z"/>
  <path id="svg_15" fill="#f2f2f2" d="m643.15869,292.08473c0,6.027 -2.70015,12.01954 -6.00441,13.3739c-3.27531,1.34249 -5.90948,-2.38639 -5.90948,-8.31807s2.63417,-11.89626 5.90948,-13.33362c3.30426,-1.45006 6.00441,2.25082 6.00441,8.27779z"/>
  <path id="svg_16" fill="#fff" d="m639.15575,293.78343c0,2.009 -0.89741,4.01408 -2.00147,4.47724c-1.10081,0.4618 -1.99081,-0.78477 -1.99081,-2.78306s0.89,-4.00023 1.99081,-4.47271c1.10406,-0.47388 2.00147,0.76954 2.00147,2.77853z"/>
  <path id="svg_17" fill="#e6e6e6" d="m547.18454,294.66889a1.06452,1.06452 0 0 1 2.04832,-0.06746l2.33611,7.36259l3.22251,10.15622a1.06452,1.06452 0 0 1 -0.60522,1.30457l-6.0974,2.54074l-4.9031,2.04308a1.06453,1.06453 0 0 1 -1.44311,-1.23713l2.90283,-11.79l2.53906,-10.31261z"/>
  <path id="svg_18" fill="#6d8baf" d="m506.558,282.35565l9.31146,-8.58908s21.077,-14.51772 13.71488,-22.499s-22.20075,10.6303 -22.20075,10.6303l-9.20827,6.03186l8.38268,14.42592z"/>
  <path id="svg_19" fill="#2f2e41" d="m383.45024,286.35239l-5.424,7.46526s-7.57983,29.15 30.77846,30.698c0,0 48.98859,23.74873 61.11527,8.86981s45.5883,-50.66863 45.5883,-50.66863l-19.6838,-20.00472l-40.11266,41.92475l-38.91452,-19.50011s-20.04496,-11.05444 -33.34705,1.21564z"/>
  <polygon id="svg_20" fill="#e6e6e6" points="357.923 424.679 307.135 611.796 313.533 613.076 366.88 424.679 357.923 424.679"/>
  <polygon id="svg_21" fill="#e6e6e6" points="419.494 424.679 470.281 611.796 463.883 613.076 410.536 424.679 419.494 424.679"/>
  <polygon id="svg_22" fill="#e6e6e6" points="384.795 420.84 393.312 612.109 400.708 612.438 391.194 418.28 384.795 420.84"/>
  <path id="svg_23" fill="#e6e6e6" d="m408.469,417.81363c0,4.85147 -13.28064,10.05931 -30.71161,11.73268c-18.70837,1.796 -34.91149,-1.11922 -34.91149,-6.63414s16.20312,-10.94793 34.91149,-12.059c17.43095,-1.03519 30.71161,2.10899 30.71161,6.96046z"/>
  <path id="svg_24" fill="#2f2e41" d="m427.02391,385.00936l12.7965,8.95755s55.025,39.66917 49.90637,55.025s-33.27091,76.779 -33.27091,76.779l-35.83021,-11.51686l40.94881,-65.26217l-21.75406,-20.47441l-11.51685,-28.15231l-1.27965,-15.3558z"/>
  <path id="svg_25" fill="#2f2e41" d="m377.11754,361.97565s-25.593,39.66917 -10.2372,51.186s58.86392,56.30466 58.86392,56.30466l8.95755,20.47441l31.99126,103.65168l39.66917,-20.47441l-35.83022,-80.618s-3.83895,-29.432 -16.63545,-46.06742s-17.91511,-40.94881 -17.91511,-40.94881l3.839,-11.51686l-22.91252,-36.66148l-39.7904,4.67023z"/>
  <path id="svg_26" fill="#2f2e41" d="m446.7082,518.43812l-23,-7s-24.8366,-1.023 -23.557,7.93454s21.75406,67.82147 28.15231,63.98252s1.27965,-21.75406 1.27965,-21.75406l17.12504,-43.163z"/>
  <polygon id="svg_27" fill="#6d8baf" points="395.672 237.21 382.876 251.286 403.35 284.557 412.308 258.964 395.672 237.21"/>
  <path id="svg_28" fill="#a6a6a6" d="m407.82915,286.47631l-22.72826,-37.63781l-7.98335,1.80759l0,12.79651l-2.5593,107.49063l42.22847,-6.39825s2.55929,-69.10115 -8.95756,-78.05867z"/>
  <path id="svg_29" fill="#2f2e41" d="m396.3123,285.19663l-19.19476,-34.55057l-16.63545,7.67791l-29.432,120.28714l-17.91509,34.55056s58.86392,29.432 72.94007,0s15.35581,-94.69413 15.35581,-94.69413l-5.11858,-33.27091z"/>
  <path id="svg_30" fill="#2f2e41" d="m368.16,263.44257l-7.6779,-5.1186s-29.432,-6.39826 -29.432,31.99126c0,0 -21.75406,49.90636 -6.39826,61.42322s52.46567,43.50811 52.46567,43.50811l19.19476,-20.4744l-43.50812,-38.38952l17.91511,-39.66916s10.23723,-20.47441 -2.55926,-33.27091z"/>
  <path id="svg_31" fill="#6d8baf" d="m377.11754,386.28901l8.95755,8.95755s15.35581,20.47441 23.03371,12.79651s-11.5168,-21.75406 -11.5168,-21.75406l-6.39825,-8.95755l-14.07621,8.95755z"/>
  <path id="svg_32" fill="#2f2e41" d="m406.34557,274.86342l21.958,53.84132s8.95755,26.87266 8.95755,37.10986l0,28.15231l-24.31336,-31.99126s-13.20438,-83.36927 -6.60219,-87.11223z"/>
  <path id="svg_33" fill="#2f2e41" d="m476.25769,583.38696s-6.3392,24.96005 1.98081,27.07312s78.129,3.9007 78.17309,-7.897s-45.30659,-21.54428 -45.30659,-21.54428l-16.75448,-10.75009l-18.09283,13.11825z"/>
  <circle id="svg_34" fill="#6d8baf" r="23.03371" cy="237.84956" cx="411.6681"/>
  <path id="svg_35" fill="#2f2e41" d="m436.22968,233.71375s4.49919,-19.49652 0,-23.99572l0,2.99947s-2.99947,-10.49813 -8.9984,-7.49866c0,0 -7.49866,-5.99892 -8.99841,-2.99947c-8.82431,-7.978 -47.95252,-0.49854 -28.95865,41.38862c0,0 3.46322,-12.89371 3.46322,-8.39451c0,0 8.9984,-8.99839 10.49813,-11.99786s26.99518,16.49706 32.99411,10.49813z"/>
  <rect id="svg_36" fill="#3f3d56" height="2.24072" width="888" y="611.67191"/>
 </g>
</svg>